<mxfile host="app.diagrams.net" modified="2024-05-13T23:57:59.299Z" agent="Mozilla/5.0 (Windows NT 10.0; Win64; x64) AppleWebKit/537.36 (KHTML, like Gecko) Chrome/124.0.0.0 Safari/537.36" etag="c9Y0VN3Xd4RTUh6GAu7H" version="24.4.0" type="github">
  <diagram name="Page-1" id="ZVeImm9_kqh_83bJ_ArG">
    <mxGraphModel dx="880" dy="468" grid="1" gridSize="10" guides="1" tooltips="1" connect="1" arrows="1" fold="1" page="1" pageScale="1" pageWidth="850" pageHeight="1100" math="0" shadow="0">
      <root>
        <mxCell id="0" />
        <mxCell id="1" parent="0" />
        <mxCell id="UAmTqJJpLtI7ptE6Amvk-1" value="START" style="ellipse;whiteSpace=wrap;html=1;" vertex="1" parent="1">
          <mxGeometry x="40" width="120" height="80" as="geometry" />
        </mxCell>
        <mxCell id="UAmTqJJpLtI7ptE6Amvk-2" value="" style="endArrow=classic;html=1;rounded=0;exitX=0.5;exitY=1;exitDx=0;exitDy=0;" edge="1" parent="1" source="UAmTqJJpLtI7ptE6Amvk-1">
          <mxGeometry width="50" height="50" relative="1" as="geometry">
            <mxPoint x="400" y="70" as="sourcePoint" />
            <mxPoint x="100" y="120" as="targetPoint" />
          </mxGeometry>
        </mxCell>
        <mxCell id="UAmTqJJpLtI7ptE6Amvk-3" value="INT N&lt;div&gt;INT K&lt;/div&gt;&lt;div&gt;INT CONTADOR&lt;/div&gt;" style="rounded=0;whiteSpace=wrap;html=1;" vertex="1" parent="1">
          <mxGeometry x="40" y="120" width="120" height="60" as="geometry" />
        </mxCell>
        <mxCell id="UAmTqJJpLtI7ptE6Amvk-4" value="" style="endArrow=classic;html=1;rounded=0;exitX=0.5;exitY=1;exitDx=0;exitDy=0;" edge="1" parent="1" source="UAmTqJJpLtI7ptE6Amvk-3">
          <mxGeometry width="50" height="50" relative="1" as="geometry">
            <mxPoint x="370" y="70" as="sourcePoint" />
            <mxPoint x="100" y="220" as="targetPoint" />
          </mxGeometry>
        </mxCell>
        <mxCell id="UAmTqJJpLtI7ptE6Amvk-5" value="CIN&lt;div&gt;N&lt;/div&gt;&lt;div&gt;K&lt;/div&gt;" style="shape=parallelogram;perimeter=parallelogramPerimeter;whiteSpace=wrap;html=1;fixedSize=1;" vertex="1" parent="1">
          <mxGeometry x="40" y="220" width="120" height="60" as="geometry" />
        </mxCell>
        <mxCell id="UAmTqJJpLtI7ptE6Amvk-6" value="" style="endArrow=classic;html=1;rounded=0;exitX=0.5;exitY=1;exitDx=0;exitDy=0;" edge="1" parent="1" source="UAmTqJJpLtI7ptE6Amvk-5">
          <mxGeometry width="50" height="50" relative="1" as="geometry">
            <mxPoint x="370" y="370" as="sourcePoint" />
            <mxPoint x="100" y="320" as="targetPoint" />
          </mxGeometry>
        </mxCell>
        <mxCell id="UAmTqJJpLtI7ptE6Amvk-7" value="N == 1" style="rhombus;whiteSpace=wrap;html=1;" vertex="1" parent="1">
          <mxGeometry x="60" y="320" width="80" height="80" as="geometry" />
        </mxCell>
        <mxCell id="UAmTqJJpLtI7ptE6Amvk-8" value="" style="endArrow=classic;html=1;rounded=0;exitX=1;exitY=0.5;exitDx=0;exitDy=0;" edge="1" parent="1" source="UAmTqJJpLtI7ptE6Amvk-7">
          <mxGeometry width="50" height="50" relative="1" as="geometry">
            <mxPoint x="370" y="370" as="sourcePoint" />
            <mxPoint x="240" y="360" as="targetPoint" />
          </mxGeometry>
        </mxCell>
        <mxCell id="UAmTqJJpLtI7ptE6Amvk-9" value="LUNES" style="rounded=0;whiteSpace=wrap;html=1;" vertex="1" parent="1">
          <mxGeometry x="240" y="330" width="120" height="60" as="geometry" />
        </mxCell>
        <mxCell id="UAmTqJJpLtI7ptE6Amvk-10" value="" style="endArrow=none;html=1;rounded=0;exitX=1;exitY=0.5;exitDx=0;exitDy=0;" edge="1" parent="1" source="UAmTqJJpLtI7ptE6Amvk-9">
          <mxGeometry width="50" height="50" relative="1" as="geometry">
            <mxPoint x="370" y="370" as="sourcePoint" />
            <mxPoint x="400" y="360" as="targetPoint" />
          </mxGeometry>
        </mxCell>
        <mxCell id="UAmTqJJpLtI7ptE6Amvk-11" value="" style="endArrow=classic;html=1;rounded=0;exitX=0.5;exitY=1;exitDx=0;exitDy=0;" edge="1" parent="1">
          <mxGeometry width="50" height="50" relative="1" as="geometry">
            <mxPoint x="100" y="400" as="sourcePoint" />
            <mxPoint x="100" y="440" as="targetPoint" />
          </mxGeometry>
        </mxCell>
        <mxCell id="UAmTqJJpLtI7ptE6Amvk-12" value="N == 2" style="rhombus;whiteSpace=wrap;html=1;" vertex="1" parent="1">
          <mxGeometry x="60" y="440" width="80" height="80" as="geometry" />
        </mxCell>
        <mxCell id="UAmTqJJpLtI7ptE6Amvk-13" value="" style="endArrow=classic;html=1;rounded=0;exitX=1;exitY=0.5;exitDx=0;exitDy=0;" edge="1" parent="1" source="UAmTqJJpLtI7ptE6Amvk-12">
          <mxGeometry width="50" height="50" relative="1" as="geometry">
            <mxPoint x="370" y="490" as="sourcePoint" />
            <mxPoint x="240" y="480" as="targetPoint" />
          </mxGeometry>
        </mxCell>
        <mxCell id="UAmTqJJpLtI7ptE6Amvk-14" value="MARTES" style="rounded=0;whiteSpace=wrap;html=1;" vertex="1" parent="1">
          <mxGeometry x="240" y="450" width="120" height="60" as="geometry" />
        </mxCell>
        <mxCell id="UAmTqJJpLtI7ptE6Amvk-15" value="" style="endArrow=none;html=1;rounded=0;exitX=1;exitY=0.5;exitDx=0;exitDy=0;" edge="1" parent="1" source="UAmTqJJpLtI7ptE6Amvk-14">
          <mxGeometry width="50" height="50" relative="1" as="geometry">
            <mxPoint x="370" y="490" as="sourcePoint" />
            <mxPoint x="400" y="480" as="targetPoint" />
          </mxGeometry>
        </mxCell>
        <mxCell id="UAmTqJJpLtI7ptE6Amvk-16" value="" style="endArrow=classic;html=1;rounded=0;exitX=0.5;exitY=1;exitDx=0;exitDy=0;" edge="1" parent="1">
          <mxGeometry width="50" height="50" relative="1" as="geometry">
            <mxPoint x="100" y="520" as="sourcePoint" />
            <mxPoint x="100" y="560" as="targetPoint" />
          </mxGeometry>
        </mxCell>
        <mxCell id="UAmTqJJpLtI7ptE6Amvk-17" value="N ==3" style="rhombus;whiteSpace=wrap;html=1;" vertex="1" parent="1">
          <mxGeometry x="60" y="560" width="80" height="80" as="geometry" />
        </mxCell>
        <mxCell id="UAmTqJJpLtI7ptE6Amvk-18" value="" style="endArrow=classic;html=1;rounded=0;exitX=1;exitY=0.5;exitDx=0;exitDy=0;" edge="1" parent="1" source="UAmTqJJpLtI7ptE6Amvk-17">
          <mxGeometry width="50" height="50" relative="1" as="geometry">
            <mxPoint x="370" y="610" as="sourcePoint" />
            <mxPoint x="240" y="600" as="targetPoint" />
          </mxGeometry>
        </mxCell>
        <mxCell id="UAmTqJJpLtI7ptE6Amvk-19" value="MIERCOLES" style="rounded=0;whiteSpace=wrap;html=1;" vertex="1" parent="1">
          <mxGeometry x="240" y="570" width="120" height="60" as="geometry" />
        </mxCell>
        <mxCell id="UAmTqJJpLtI7ptE6Amvk-20" value="" style="endArrow=none;html=1;rounded=0;exitX=1;exitY=0.5;exitDx=0;exitDy=0;" edge="1" parent="1" source="UAmTqJJpLtI7ptE6Amvk-19">
          <mxGeometry width="50" height="50" relative="1" as="geometry">
            <mxPoint x="370" y="610" as="sourcePoint" />
            <mxPoint x="400" y="600" as="targetPoint" />
          </mxGeometry>
        </mxCell>
        <mxCell id="UAmTqJJpLtI7ptE6Amvk-21" value="" style="endArrow=classic;html=1;rounded=0;exitX=0.5;exitY=1;exitDx=0;exitDy=0;" edge="1" parent="1">
          <mxGeometry width="50" height="50" relative="1" as="geometry">
            <mxPoint x="100" y="640" as="sourcePoint" />
            <mxPoint x="100" y="680" as="targetPoint" />
          </mxGeometry>
        </mxCell>
        <mxCell id="UAmTqJJpLtI7ptE6Amvk-22" value="N == 4" style="rhombus;whiteSpace=wrap;html=1;" vertex="1" parent="1">
          <mxGeometry x="60" y="680" width="80" height="80" as="geometry" />
        </mxCell>
        <mxCell id="UAmTqJJpLtI7ptE6Amvk-23" value="" style="endArrow=classic;html=1;rounded=0;exitX=1;exitY=0.5;exitDx=0;exitDy=0;" edge="1" parent="1" source="UAmTqJJpLtI7ptE6Amvk-22">
          <mxGeometry width="50" height="50" relative="1" as="geometry">
            <mxPoint x="370" y="730" as="sourcePoint" />
            <mxPoint x="240" y="720" as="targetPoint" />
          </mxGeometry>
        </mxCell>
        <mxCell id="UAmTqJJpLtI7ptE6Amvk-24" value="JUEVES" style="rounded=0;whiteSpace=wrap;html=1;" vertex="1" parent="1">
          <mxGeometry x="240" y="690" width="120" height="60" as="geometry" />
        </mxCell>
        <mxCell id="UAmTqJJpLtI7ptE6Amvk-25" value="" style="endArrow=none;html=1;rounded=0;exitX=1;exitY=0.5;exitDx=0;exitDy=0;" edge="1" parent="1" source="UAmTqJJpLtI7ptE6Amvk-24">
          <mxGeometry width="50" height="50" relative="1" as="geometry">
            <mxPoint x="370" y="730" as="sourcePoint" />
            <mxPoint x="400" y="720" as="targetPoint" />
          </mxGeometry>
        </mxCell>
        <mxCell id="UAmTqJJpLtI7ptE6Amvk-26" value="" style="endArrow=classic;html=1;rounded=0;exitX=0.5;exitY=1;exitDx=0;exitDy=0;" edge="1" parent="1">
          <mxGeometry width="50" height="50" relative="1" as="geometry">
            <mxPoint x="100" y="760" as="sourcePoint" />
            <mxPoint x="100" y="800" as="targetPoint" />
          </mxGeometry>
        </mxCell>
        <mxCell id="UAmTqJJpLtI7ptE6Amvk-27" value="N == 5" style="rhombus;whiteSpace=wrap;html=1;" vertex="1" parent="1">
          <mxGeometry x="60" y="800" width="80" height="80" as="geometry" />
        </mxCell>
        <mxCell id="UAmTqJJpLtI7ptE6Amvk-28" value="" style="endArrow=classic;html=1;rounded=0;exitX=1;exitY=0.5;exitDx=0;exitDy=0;" edge="1" parent="1" source="UAmTqJJpLtI7ptE6Amvk-27">
          <mxGeometry width="50" height="50" relative="1" as="geometry">
            <mxPoint x="370" y="850" as="sourcePoint" />
            <mxPoint x="240" y="840" as="targetPoint" />
          </mxGeometry>
        </mxCell>
        <mxCell id="UAmTqJJpLtI7ptE6Amvk-29" value="VIERNES" style="rounded=0;whiteSpace=wrap;html=1;" vertex="1" parent="1">
          <mxGeometry x="240" y="810" width="120" height="60" as="geometry" />
        </mxCell>
        <mxCell id="UAmTqJJpLtI7ptE6Amvk-30" value="" style="endArrow=none;html=1;rounded=0;exitX=1;exitY=0.5;exitDx=0;exitDy=0;" edge="1" parent="1" source="UAmTqJJpLtI7ptE6Amvk-29">
          <mxGeometry width="50" height="50" relative="1" as="geometry">
            <mxPoint x="370" y="850" as="sourcePoint" />
            <mxPoint x="400" y="840" as="targetPoint" />
          </mxGeometry>
        </mxCell>
        <mxCell id="UAmTqJJpLtI7ptE6Amvk-31" value="" style="endArrow=classic;html=1;rounded=0;exitX=0.5;exitY=1;exitDx=0;exitDy=0;" edge="1" parent="1">
          <mxGeometry width="50" height="50" relative="1" as="geometry">
            <mxPoint x="100" y="880" as="sourcePoint" />
            <mxPoint x="100" y="920" as="targetPoint" />
          </mxGeometry>
        </mxCell>
        <mxCell id="UAmTqJJpLtI7ptE6Amvk-32" value="N == 6" style="rhombus;whiteSpace=wrap;html=1;" vertex="1" parent="1">
          <mxGeometry x="60" y="920" width="80" height="80" as="geometry" />
        </mxCell>
        <mxCell id="UAmTqJJpLtI7ptE6Amvk-33" value="" style="endArrow=classic;html=1;rounded=0;exitX=1;exitY=0.5;exitDx=0;exitDy=0;" edge="1" parent="1" source="UAmTqJJpLtI7ptE6Amvk-32">
          <mxGeometry width="50" height="50" relative="1" as="geometry">
            <mxPoint x="370" y="970" as="sourcePoint" />
            <mxPoint x="240" y="960" as="targetPoint" />
          </mxGeometry>
        </mxCell>
        <mxCell id="UAmTqJJpLtI7ptE6Amvk-34" value="SABADO" style="rounded=0;whiteSpace=wrap;html=1;" vertex="1" parent="1">
          <mxGeometry x="240" y="930" width="120" height="60" as="geometry" />
        </mxCell>
        <mxCell id="UAmTqJJpLtI7ptE6Amvk-35" value="" style="endArrow=none;html=1;rounded=0;exitX=1;exitY=0.5;exitDx=0;exitDy=0;" edge="1" parent="1" source="UAmTqJJpLtI7ptE6Amvk-34">
          <mxGeometry width="50" height="50" relative="1" as="geometry">
            <mxPoint x="370" y="970" as="sourcePoint" />
            <mxPoint x="400" y="960" as="targetPoint" />
          </mxGeometry>
        </mxCell>
        <mxCell id="UAmTqJJpLtI7ptE6Amvk-46" value="" style="endArrow=classic;html=1;rounded=0;exitX=0.5;exitY=1;exitDx=0;exitDy=0;" edge="1" parent="1">
          <mxGeometry width="50" height="50" relative="1" as="geometry">
            <mxPoint x="100" y="1000" as="sourcePoint" />
            <mxPoint x="100" y="1040" as="targetPoint" />
          </mxGeometry>
        </mxCell>
        <mxCell id="UAmTqJJpLtI7ptE6Amvk-47" value="N == 7" style="rhombus;whiteSpace=wrap;html=1;" vertex="1" parent="1">
          <mxGeometry x="60" y="1040" width="80" height="80" as="geometry" />
        </mxCell>
        <mxCell id="UAmTqJJpLtI7ptE6Amvk-48" value="" style="endArrow=classic;html=1;rounded=0;exitX=1;exitY=0.5;exitDx=0;exitDy=0;" edge="1" parent="1" source="UAmTqJJpLtI7ptE6Amvk-47">
          <mxGeometry width="50" height="50" relative="1" as="geometry">
            <mxPoint x="370" y="1090" as="sourcePoint" />
            <mxPoint x="240" y="1080" as="targetPoint" />
          </mxGeometry>
        </mxCell>
        <mxCell id="UAmTqJJpLtI7ptE6Amvk-49" value="DOMINGO" style="rounded=0;whiteSpace=wrap;html=1;" vertex="1" parent="1">
          <mxGeometry x="240" y="1050" width="120" height="60" as="geometry" />
        </mxCell>
        <mxCell id="UAmTqJJpLtI7ptE6Amvk-50" value="" style="endArrow=none;html=1;rounded=0;exitX=1;exitY=0.5;exitDx=0;exitDy=0;" edge="1" parent="1" source="UAmTqJJpLtI7ptE6Amvk-49">
          <mxGeometry width="50" height="50" relative="1" as="geometry">
            <mxPoint x="370" y="1090" as="sourcePoint" />
            <mxPoint x="400" y="1080" as="targetPoint" />
          </mxGeometry>
        </mxCell>
        <mxCell id="UAmTqJJpLtI7ptE6Amvk-51" value="" style="endArrow=none;html=1;rounded=0;" edge="1" parent="1">
          <mxGeometry width="50" height="50" relative="1" as="geometry">
            <mxPoint x="400" y="1080" as="sourcePoint" />
            <mxPoint x="400" y="359" as="targetPoint" />
          </mxGeometry>
        </mxCell>
        <mxCell id="UAmTqJJpLtI7ptE6Amvk-52" value="" style="endArrow=none;html=1;rounded=0;" edge="1" parent="1">
          <mxGeometry width="50" height="50" relative="1" as="geometry">
            <mxPoint x="370" y="720" as="sourcePoint" />
            <mxPoint x="480" y="720" as="targetPoint" />
          </mxGeometry>
        </mxCell>
        <mxCell id="UAmTqJJpLtI7ptE6Amvk-53" value="FOR&lt;div&gt;1 &amp;lt;= K&lt;/div&gt;" style="rhombus;whiteSpace=wrap;html=1;" vertex="1" parent="1">
          <mxGeometry x="480" y="680" width="80" height="80" as="geometry" />
        </mxCell>
        <mxCell id="UAmTqJJpLtI7ptE6Amvk-54" value="" style="endArrow=none;html=1;rounded=0;entryX=0.5;entryY=1;entryDx=0;entryDy=0;" edge="1" parent="1" target="UAmTqJJpLtI7ptE6Amvk-53">
          <mxGeometry width="50" height="50" relative="1" as="geometry">
            <mxPoint x="520" y="840" as="sourcePoint" />
            <mxPoint x="420" y="770" as="targetPoint" />
          </mxGeometry>
        </mxCell>
        <mxCell id="UAmTqJJpLtI7ptE6Amvk-55" value="CONTADOR == 7" style="rounded=0;whiteSpace=wrap;html=1;" vertex="1" parent="1">
          <mxGeometry x="460" y="830" width="120" height="60" as="geometry" />
        </mxCell>
        <mxCell id="UAmTqJJpLtI7ptE6Amvk-56" value="" style="endArrow=none;html=1;rounded=0;entryX=0.5;entryY=1;entryDx=0;entryDy=0;" edge="1" parent="1" target="UAmTqJJpLtI7ptE6Amvk-55">
          <mxGeometry width="50" height="50" relative="1" as="geometry">
            <mxPoint x="520" y="960" as="sourcePoint" />
            <mxPoint x="420" y="770" as="targetPoint" />
          </mxGeometry>
        </mxCell>
        <mxCell id="UAmTqJJpLtI7ptE6Amvk-57" value="COUT&lt;div&gt;1 - K&lt;/div&gt;" style="shape=parallelogram;perimeter=parallelogramPerimeter;whiteSpace=wrap;html=1;fixedSize=1;" vertex="1" parent="1">
          <mxGeometry x="460" y="960" width="120" height="60" as="geometry" />
        </mxCell>
        <mxCell id="UAmTqJJpLtI7ptE6Amvk-58" value="" style="endArrow=none;html=1;rounded=0;" edge="1" parent="1">
          <mxGeometry width="50" height="50" relative="1" as="geometry">
            <mxPoint x="520" y="1080" as="sourcePoint" />
            <mxPoint x="760" y="1080" as="targetPoint" />
          </mxGeometry>
        </mxCell>
        <mxCell id="UAmTqJJpLtI7ptE6Amvk-59" value="" style="endArrow=none;html=1;rounded=0;" edge="1" parent="1">
          <mxGeometry width="50" height="50" relative="1" as="geometry">
            <mxPoint x="760" y="1080" as="sourcePoint" />
            <mxPoint x="760" y="720" as="targetPoint" />
          </mxGeometry>
        </mxCell>
        <mxCell id="UAmTqJJpLtI7ptE6Amvk-60" value="" style="endArrow=none;html=1;rounded=0;exitX=1;exitY=0.5;exitDx=0;exitDy=0;" edge="1" parent="1" source="UAmTqJJpLtI7ptE6Amvk-53">
          <mxGeometry width="50" height="50" relative="1" as="geometry">
            <mxPoint x="370" y="920" as="sourcePoint" />
            <mxPoint x="760" y="720" as="targetPoint" />
          </mxGeometry>
        </mxCell>
        <mxCell id="UAmTqJJpLtI7ptE6Amvk-61" value="" style="endArrow=classic;html=1;rounded=0;exitX=0.5;exitY=1;exitDx=0;exitDy=0;" edge="1" parent="1" source="UAmTqJJpLtI7ptE6Amvk-57">
          <mxGeometry width="50" height="50" relative="1" as="geometry">
            <mxPoint x="370" y="920" as="sourcePoint" />
            <mxPoint x="520" y="1161" as="targetPoint" />
          </mxGeometry>
        </mxCell>
        <mxCell id="UAmTqJJpLtI7ptE6Amvk-62" value="END" style="ellipse;whiteSpace=wrap;html=1;" vertex="1" parent="1">
          <mxGeometry x="460" y="1160" width="120" height="80" as="geometry" />
        </mxCell>
      </root>
    </mxGraphModel>
  </diagram>
</mxfile>
